<svg xmlns="http://www.w3.org/2000/svg" version="1.1" xmlns:xlink="http://www.w3.org/1999/xlink" xmlns:svgjs="http://svgjs.com/svgjs" width="1366" height="768" preserveAspectRatio="none" viewBox="0 0 1366 768"><g mask="url(&quot;#SvgjsMask1004&quot;)" fill="none"><rect width="1366" height="768" x="0" y="0" fill="url(#SvgjsLinearGradient1005)"></rect><path d="M1411.533333333333 768L0 768 L0 548.64Q48.51 483.31, 113.83333333333333 531.82Q137.16 441.32, 227.66666666666666 464.65Q270.16 438.84, 295.96666666666664 481.33Q335.7 407.23, 409.79999999999995 446.97Q472.97 396.31, 523.6333333333333 459.48Q638.83 460.85, 637.4666666666667 576.05Q630.09 454.84, 751.3000000000001 447.46Q806.31 434.17, 819.6 489.17Q861.86 417.59, 933.4333333333334 459.85Q1022.06 434.64, 1047.2666666666667 523.27Q1122.52 484.69, 1161.1 559.94Q1169.25 499.79, 1229.3999999999999 507.94Q1252.97 463.22, 1297.6999999999998 486.79Q1379.62 454.87, 1411.533333333333 536.79z" fill="#182f5d"></path><path d="M1434.2999999999997 768L0 768 L0 606.93Q70.14 608.77, 68.3 678.92Q133.43 630.21, 182.13333333333333 695.34Q195.3 640.21, 250.43333333333334 653.37Q295.87 630.51, 318.73333333333335 675.95Q350.63 594.01, 432.56666666666666 625.91Q502.57 582.08, 546.4 652.08Q622.84 614.68, 660.2333333333333 691.12Q668.67 631.26, 728.5333333333333 639.7Q767.1 564.43, 842.3666666666667 603Q866.92 559.25, 910.6666666666666 583.8Q1000.74 560.04, 1024.5 650.11Q1095.53 607.31, 1138.3333333333333 678.34Q1142.9 569.07, 1252.1666666666665 573.64Q1315.83 569, 1320.4666666666665 632.66Q1363.56 561.92, 1434.2999999999997 605.02z" fill="#25467d"></path><path d="M1479.833333333333 768L0 768 L0 807.67Q21.52 760.88, 68.3 782.4Q74.48 674.74, 182.13333333333333 680.92Q246.95 631.9, 295.96666666666664 696.71Q361.75 648.66, 409.79999999999995 714.44Q480.01 670.81, 523.6333333333333 741.02Q592.46 741.55, 591.9333333333333 810.38Q590.52 695.13, 705.7666666666667 693.72Q725.12 644.77, 774.0666666666666 664.12Q857.65 633.87, 887.9 717.46Q964.5 680.22, 1001.7333333333333 756.82Q1045.28 686.53, 1115.5666666666666 730.08Q1138.39 684.6, 1183.8666666666666 707.43Q1229.71 639.44, 1297.6999999999998 685.29Q1325.75 645.04, 1365.9999999999998 673.1Q1469.2 662.47, 1479.833333333333 765.67z" fill="#356cb1"></path></g><defs><mask id="SvgjsMask1004"><rect width="1366" height="768" fill="#ffffff"></rect></mask><linearGradient x1="10.94%" y1="-19.47%" x2="89.06%" y2="119.47%" gradientUnits="userSpaceOnUse" id="SvgjsLinearGradient1005"><stop stop-color="#0e2a47" offset="0"></stop><stop stop-color="rgba(0, 158, 105, 0.8)" offset="1"></stop></linearGradient></defs></svg>